# xmcd
#
# Track frame offsets: 
#        225
#        11242
#        24072
#        33841
#        48042
#        62897
#        74447
#        86937
#        106011
#        119329
#        132223
#        141561
#        152573
#        163995
#        174545
#
# Disc length: 2459 seconds
#
# Revision: 2
# Processed by: cddbd v1.4PL0 Copyright (c) Steve Scherf et al.
# Submitted via: ExactAudioCopy v0.95a2
#
DISCID=ca09980f
DTITLE=Various Artist - Country Highlights [CD #01)
DYEAR=1900
DGENRE=Country
TTITLE0=Waylon Jennings - Sally Was A Good Old Girl
TTITLE1=Willie Boxcar - Hobo Heaven
TTITLE2=Leroy van Dyke - The Auctioneer
TTITLE3=Freddy Fender - Mexican Rose
TTITLE4=Jeannie C. Riley - Harper Valley P.T.A.
TTITLE5=Patsy Cline - Walking After Midnight
TTITLE6=Lynn Anderson - Rose Garden
TTITLE7=Tanya Tucker - Delta Dawn
TTITLE8=The Sweethearts Of Road - Chains Of Gold
TTITLE9=Kenny Rogers - Ruby, Don't Take Your Love To Town
TTITLE10=Frankie Laine - Rawhide
TTITLE11=Endsley - Singin' The Blues
TTITLE12=Dave Dudley - Six Days On The Road
TTITLE13=Bary Sadler - Ballad Of The Green Barrets
TTITLE14=Dave Dudley - Truck Drivin' Son-Of-A-Gun
EXTD=
EXTT0=
EXTT1=
EXTT2=
EXTT3=
EXTT4=
EXTT5=
EXTT6=
EXTT7=
EXTT8=
EXTT9=
EXTT10=
EXTT11=
EXTT12=
EXTT13=
EXTT14=
PLAYORDER=
